<svg width="30" height="30" viewBox="0 0 24 24" fill="none" xmlns="http://www.w3.org/2000/svg">
<path d="M21.4299 20.6154L17.3847 16.6195C18.9852 15.0501 19.9877 12.8958 19.9877 10.4925C19.9877 5.55262 15.8252 1.57987 10.7775 1.81152C6.29852 2.01421 2.61681 5.65106 2.41162 10.0755C2.17711 15.0617 6.19885 19.1734 11.1938 19.1734C11.6569 19.1734 12.1083 19.1387 12.5539 19.0692C12.847 19.0229 13.064 18.7796 13.064 18.4901C13.064 18.131 12.7415 17.8588 12.378 17.9168C11.0765 18.1252 9.67537 18.021 8.19213 17.3434C5.60673 16.1678 3.74829 13.724 3.59 10.921C3.31446 6.18385 7.50621 2.31535 12.3839 3.04504C15.7725 3.55466 18.4341 6.34021 18.7741 9.71067C19.0379 12.2935 17.9651 14.6447 16.1594 16.1794C16.1594 16.1794 16.1594 16.1794 16.1594 16.1852C16.1535 16.191 16.1418 16.191 16.136 16.1968C15.9073 16.4226 15.9073 16.7875 16.136 17.0133L20.5974 21.4204C20.826 21.6463 21.1954 21.6463 21.424 21.4204C21.6527 21.1946 21.6527 20.8297 21.424 20.6039L21.4299 20.6154Z" fill="#000000"/>
</svg>
